<?xml version="1.0" encoding="utf-8"?>
<!-- Generator: Adobe Illustrator 16.0.0, SVG Export Plug-In . SVG Version: 6.00 Build 0)  -->
<!DOCTYPE svg PUBLIC "-//W3C//DTD SVG 1.1//EN" "http://www.w3.org/Graphics/SVG/1.1/DTD/svg11.dtd">
<svg version="1.1" id="Layer_1" xmlns="http://www.w3.org/2000/svg" xmlns:xlink="http://www.w3.org/1999/xlink" x="0px" y="0px"
	 width="1200px" height="512px" viewBox="0 0 1200 512" enable-background="new 0 0 1200 512" xml:space="preserve">
<path fill="#CC3333" d="M582.718,200.084l-11.522,47.733c14.814,3.292,60.079,18.106,66.663-9.053
	C644.442,210.783,597.531,204.198,582.718,200.084z"/>
<path fill="#CC3333" d="M588.479,178.686c12.345,3.292,50.203,15.638,55.964-9.053c5.761-25.513-32.92-31.273-45.265-34.565"/>
<path fill="#E05A00" d="M588.479,178.686"/>
<path fill="#CC3333" d="M647.734,5.857C541.567-20.479,434.578,44.537,408.242,149.881
	C381.906,256.048,446.1,363.037,552.267,389.373s213.156-37.858,239.492-144.024C818.095,140.005,753.901,33.016,647.734,5.857z
	 M687.238,169.633c-2.469,18.929-13.168,28.805-27.982,32.097c19.752,9.876,29.628,25.513,19.752,52.672
	c-11.521,33.743-39.504,36.212-76.538,29.628l-9.054,36.212l-21.397-6.584l9.053-35.389c-5.761-1.646-11.521-3.292-17.282-4.115
	l-9.054,35.389l-21.397-5.761l9.053-36.212c-4.938-1.646-9.876-2.469-15.637-4.115l-27.982-7.406l10.699-24.69l15.637,4.115
	c5.762,1.646,9.054-2.469,9.876-4.938l13.991-56.786c0.823,0,1.646,0,2.469,0.823c-0.822,0-1.646-0.823-2.469-0.823l9.876-40.327
	c0-4.938-1.646-10.699-9.876-12.345l-15.637-4.115l5.761-23.044l29.628,7.407l0,0c4.115,0.823,9.053,2.469,13.991,3.292
	l9.053-35.389l21.397,5.761l-9.053,34.565c5.762,1.646,11.522,2.47,17.283,4.115l8.23-34.565l21.397,5.761l-9.053,35.389
	C670.778,129.306,691.354,143.297,687.238,169.633z"/>
<g>
	<path fill="#4D4E4E" d="M451.038,439.576c4.115,0,7.407,0.822,10.699,2.469c3.292,1.646,5.761,3.292,7.406,5.761
		c1.646,2.469,3.292,5.761,4.115,9.053s1.646,7.407,1.646,10.699c0,5.761-0.823,11.522-3.292,17.283
		c-2.47,5.761-4.938,9.876-9.054,13.99c-4.114,4.115-8.229,7.407-13.99,9.054c-4.938,2.469-10.699,3.292-17.283,3.292
		c-0.823,0-2.469,0-4.115,0c-1.646,0-4.115,0-6.584-0.823c-2.469,0-4.938-0.823-8.23-1.646c-2.469-0.822-5.761-1.646-8.23-2.469
		l22.221-94.645l20.575-3.292l-8.229,33.743c1.646-0.823,3.292-1.646,4.938-1.646C446.923,440.399,449.392,439.576,451.038,439.576
		 M434.578,495.539c3.292,0,5.761-0.822,8.229-2.469c2.47-1.646,4.938-3.292,6.584-5.761c1.646-2.469,3.292-4.938,4.938-8.229
		c0.823-3.293,1.646-6.584,1.646-9.877c0-4.114-0.822-7.406-2.469-9.875c-1.646-2.47-4.115-3.293-7.407-3.293
		c-0.822,0-2.469,0-4.938,0.823c-1.646,0.823-4.115,1.646-4.938,2.469l-8.229,35.39c0.823,0,0.823,0,1.646,0h0.823
		c0.823,0,0.823,0,1.646,0C432.109,495.539,432.932,495.539,434.578,495.539L434.578,495.539z"/>
	<path fill="#4D4E4E" d="M566.258,482.372c0-5.762,0.823-11.522,3.292-16.46c1.646-4.938,4.938-9.876,8.229-13.991
		s8.23-6.584,13.168-9.053c4.938-2.47,10.699-3.292,17.283-3.292c4.115,0,7.407,0,10.699,0.822c3.292,0.823,5.761,1.646,8.229,3.292
		l-6.584,14.814c-1.646-0.823-3.292-1.646-5.761-1.646c-1.646-0.822-4.115-0.822-6.584-0.822c-6.584,0-11.521,2.469-15.637,6.584
		c-4.115,4.114-5.762,10.698-5.762,18.105c0,4.115,0.823,8.229,3.293,10.699c1.646,2.469,5.761,4.114,10.698,4.114
		c2.47,0,4.938,0,7.407-0.822c2.469-0.823,4.115-0.823,6.584-1.646l1.646,15.637c-2.47,0.823-4.938,1.646-8.23,2.47
		c-3.292,0.822-6.584,0.822-10.699,0.822c-5.761,0-9.876-0.822-13.99-2.469c-4.115-1.646-6.584-3.292-9.054-6.584
		c-2.469-2.469-4.114-5.761-4.938-9.053C566.258,489.779,566.258,486.487,566.258,482.372"/>
	<path fill="#4D4E4E" d="M651.85,511.999c-4.938,0-8.23-0.822-12.346-2.469c-3.291-1.646-6.584-3.292-8.229-5.761
		c-2.469-2.469-4.115-5.761-4.938-9.053c-0.822-3.292-1.646-7.407-1.646-11.522c0-4.938,0.823-10.698,2.469-15.637
		c1.646-4.938,4.115-9.876,7.407-13.991c3.292-4.114,7.407-7.406,12.345-9.876c4.938-2.469,9.876-4.114,16.46-4.114
		c4.938,0,8.23,0.822,12.346,2.469c3.291,1.646,6.584,3.292,8.229,5.761c2.469,2.469,4.115,5.761,4.938,9.053
		c0.823,3.292,1.646,7.407,1.646,11.522c0,4.938-0.823,10.698-2.469,15.637c-1.646,4.938-4.115,9.876-7.407,13.991
		c-3.292,4.114-7.407,7.407-12.345,9.876C663.371,510.354,658.434,511.999,651.85,511.999L651.85,511.999 M661.726,456.036
		c-2.47,0-5.762,0.822-7.407,2.469c-2.469,1.646-4.115,4.115-5.761,6.584c-1.646,2.469-2.47,4.938-3.292,8.229
		c-0.823,3.292-0.823,5.762-0.823,8.23c0,4.115,0.823,7.406,2.469,9.876c1.646,2.469,4.115,3.292,7.407,3.292
		s5.761-0.823,7.407-2.469c2.469-1.646,4.114-4.115,5.761-6.584c1.646-2.47,2.469-4.938,3.292-8.23s0.823-5.761,0.823-8.229
		c0-4.115-0.823-7.407-2.47-9.876C667.486,456.859,665.018,456.036,661.726,456.036z"/>
	<path fill="#4D4E4E" d="M711.928,509.531h-19.752l16.46-68.309h19.752L711.928,509.531 M720.981,432.992
		c-2.47,0-4.938-0.823-7.407-2.47c-2.469-1.646-3.292-4.114-3.292-7.406c0-1.646,0-3.292,0.823-4.938
		c0.822-1.646,1.646-3.292,3.292-4.115c0.822-0.822,2.469-2.469,4.114-2.469c1.646-0.823,3.292-0.823,4.938-0.823
		c2.469,0,4.938,0.823,7.407,2.47c2.469,1.646,3.292,4.114,3.292,7.406c0,1.646,0,3.292-0.823,4.938
		c-0.823,1.646-1.646,3.292-3.292,4.115c-0.823,0.822-2.469,2.469-4.115,2.469C724.273,432.169,722.627,432.992,720.981,432.992z"/>
	<path fill="#4D4E4E" d="M742.379,444.514c1.646-0.823,3.292-0.823,4.938-1.646c1.646-0.823,4.114-0.823,5.761-1.646
		c2.469-0.823,4.938-0.823,7.407-0.823c2.469,0,5.761-0.822,9.053-0.822c9.876,0,17.283,3.292,21.397,9.053
		c4.115,5.761,4.938,13.991,1.646,24.689l-9.053,37.035H764.6l8.23-36.212c0.823-2.469,0.823-4.115,1.646-6.584
		c0-2.469,0-4.115,0-5.761c0-1.646-0.822-3.292-2.469-4.115c-1.646-0.823-3.292-1.646-5.761-1.646s-4.938,0-7.407,0.823
		l-12.345,53.495h-19.752L742.379,444.514"/>
</g>
<rect x="483.984" y="405.772" fill="none" width="197.99" height="167.992"/>
<text transform="matrix(1 0 0 1 483.9844 512.2698)" fill="#4D4E4E" font-family="'MyriadPro-BoldIt'" font-size="150">e</text>
</svg>
